<svg width="128" height="128" viewBox="0 0 128 128" fill="none" xmlns="http://www.w3.org/2000/svg">
<path d="M40.7315 13.2385L36.2657 15.8098C33.6009 17.3441 33.5916 21.186 36.249 22.7331L83.4178 50.1944C84.6483 50.9108 85.4053 52.2274 85.4053 53.6513V108.047C85.4053 111.083 88.6552 113.013 91.3207 111.559L95.7809 109.126C97.0659 108.425 97.8655 107.078 97.8655 105.614V46.4772C97.8655 45.0533 97.1085 43.7368 95.878 43.0204L44.7399 13.2482C43.5019 12.5275 41.973 12.5238 40.7315 13.2385Z" fill="#1A1A1A"/>
<path d="M61.8741 1.15554L57.4082 3.7268C54.7435 5.26106 54.7342 9.10304 57.3916 10.6501L104.56 38.1114C105.791 38.8278 106.548 40.1444 106.548 41.5683V95.9641C106.548 99.0003 109.798 100.93 112.463 99.4757L116.923 97.0428C118.208 96.3419 119.008 94.995 119.008 93.5312V34.3942C119.008 32.9703 118.251 31.6538 117.021 30.9374L65.8825 1.1652C64.6445 0.444443 63.1156 0.440758 61.8741 1.15554Z" fill="#1A1A1A"/>
<path d="M48.6105 70.2194L39.6193 65.2243C36.9532 63.7431 33.6768 65.671 33.6768 68.7209V79.2035C33.6768 80.6562 34.4643 81.9946 35.7342 82.7001L44.7254 87.6952C47.3915 89.1764 50.6679 87.2485 50.6679 84.1986V73.716C50.6679 72.2633 49.8804 70.9249 48.6105 70.2194Z" fill="#1A1A1A"/>
<path d="M23.1548 26.0393L48.6656 40.7571C49.9039 41.4715 50.6667 42.7923 50.6667 44.2218V49.6345C50.6667 52.7302 47.3013 54.6525 44.6348 53.08L27.2473 42.8258C24.5808 41.2533 21.2154 43.1756 21.2154 46.2713V86.4357C21.2154 87.8576 21.9702 89.1726 23.198 89.8897L57.8647 110.138C60.5313 111.695 63.8821 109.772 63.8821 106.684V56.3819C63.8821 53.3048 67.2113 51.38 69.878 52.9154L74.3382 55.4834C75.5781 56.1973 76.3423 57.5191 76.3423 58.9499V118.446C76.3423 119.913 75.5396 121.262 74.2507 121.962L65.092 126.933C63.8709 127.596 62.3932 127.578 61.1889 126.885L10.0052 97.437C8.76468 96.7233 8 95.4012 8 93.9699V34.4744C8 33.0078 8.80266 31.6587 10.0916 30.959L19.2475 25.9887C20.4702 25.3249 21.9498 25.3441 23.1548 26.0393Z" fill="#CDFE7C"/>
</svg>
